<svg width="101" height="22" viewBox="0 0 101 22" fill="none" xmlns="http://www.w3.org/2000/svg">
<path d="M4.54896 11.9031C4.54896 10.1126 5.6115 9.05164 7.43772 9.05164C9.33036 9.05164 10.0608 10.2784 10.0608 11.9031V21.1205H14.5766V11.9031C14.5766 10.1126 15.6391 9.05164 17.4654 9.05164C19.358 9.05164 20.1217 10.2784 20.1217 11.9031V21.1205H24.6375V10.61C24.6375 7.22805 23.1765 4.97343 19.7564 4.97343C17.0669 4.97343 15.3071 6.23336 14.6098 9.9137H14.5434C14.3774 6.92964 12.9164 4.97343 9.72881 4.97343C7.20529 4.97343 5.31266 6.20021 4.58217 9.81423H4.54896V5.40446H0V21.1205H4.54896V11.9031Z" fill="white"/>
<path d="M30.8299 3.74665V0.795748H26.115V3.74665H30.8299ZM30.7635 21.1205V5.40446H26.2146V21.1205H30.7635Z" fill="white"/>
<path d="M39.057 21.5847C43.772 21.5847 45.8306 19.6616 45.8306 16.5781C45.8306 14.224 44.5357 12.533 40.0199 11.6378C36.9319 11.0742 36.5335 10.4774 36.5335 9.61529C36.5335 8.75323 37.264 8.22273 38.5921 8.22273C40.1527 8.22273 40.9164 9.01848 41.2816 10.7094L45.5982 9.74792C45.0005 6.83017 43.1411 4.97343 38.6253 4.97343C34.2092 4.97343 32.0509 6.83017 32.0509 9.81423C32.0509 12.4004 33.5451 13.8924 37.9612 14.8208C40.7836 15.3845 41.3813 15.8818 41.3813 16.7439C41.3481 17.7054 40.6176 18.2359 39.1566 18.2359C37.2307 18.2359 36.301 17.2081 35.8694 15.4508L31.6525 16.2797C32.1173 19.1643 33.7443 21.5847 39.057 21.5847Z" fill="white"/>
<path d="M52.3767 5.13921C52.3767 3.84612 53.0076 3.28246 54.2029 3.28246C54.701 3.28246 55.199 3.31562 55.7303 3.41509L56.0623 0.232092C55.4315 0.0994693 54.7342 0 53.5388 0C49.6539 0 47.8609 2.15515 47.8609 5.17236V5.40446H45.7359V9.18426H47.8609V21.1205H52.3767V9.18426H55.7303V5.40446H52.3767V5.13921Z" fill="white"/>
<path d="M62.3205 17.8049C60.5938 17.8049 59.9962 17.0423 59.9962 16.0807C59.9962 15.2187 60.7931 14.6219 62.1212 14.6219H65.5081V15.0861C65.5081 16.6776 64.2463 17.8049 62.3205 17.8049ZM65.5081 21.1205H70.0238V11.3726C70.0238 7.36067 68.0316 5.03974 63.2502 5.03974C58.3692 5.03974 56.4433 7.39383 56.0449 10.6763L60.295 11.2731C60.5938 9.44951 61.5568 8.78639 63.051 8.78639C64.7776 8.78639 65.5081 9.71476 65.5081 11.4057V12.0689H61.424C57.2734 12.0689 55.58 14.0251 55.58 16.8765C55.58 19.96 57.6387 21.4521 60.3614 21.4521C63.0177 21.4521 64.7444 19.96 65.4417 17.2744H65.5081V21.1205Z" fill="white"/>
<path d="M76.0723 11.9031C76.0723 10.1126 77.1349 9.05164 78.9611 9.05164C80.8537 9.05164 81.5842 10.2784 81.5842 11.9031V21.1205H86.1V10.61C86.1 7.22805 84.6722 4.97343 81.2522 4.97343C78.7287 4.97343 76.836 6.20021 76.1055 9.81423H76.0723V5.40446H71.5234V21.1205H76.0723V11.9031Z" fill="white"/>
<path d="M94.2264 21.5847C98.9413 21.5847 101 19.6616 101 16.5781C101 14.224 99.705 12.533 95.1893 11.6378C92.1013 11.0742 91.7029 10.4774 91.7029 9.61529C91.7029 8.75323 92.4333 8.22273 93.7615 8.22273C95.3221 8.22273 96.0858 9.01848 96.451 10.7094L100.768 9.74792C100.17 6.83017 98.3105 4.97343 93.7947 4.97343C89.3786 4.97343 87.2203 6.83017 87.2203 9.81423C87.2203 12.4004 88.7145 13.8924 93.1306 14.8208C95.953 15.3845 96.5506 15.8818 96.5506 16.7439C96.5174 17.7054 95.7869 18.2359 94.326 18.2359C92.4001 18.2359 91.4704 17.2081 91.0388 15.4508L86.8218 16.2797C87.2867 19.1643 88.9137 21.5847 94.2264 21.5847Z" fill="white"/>
</svg>
